<svg width="32" height="32" viewBox="0 0 32 32" fill="none" xmlns="http://www.w3.org/2000/svg">
<g clip-path="url(#clip0_4154_1614)">
<g clip-path="url(#clip1_4154_1614)">
<mask id="mask0_4154_1614" style="mask-type:luminance" maskUnits="userSpaceOnUse" x="-4" y="0" width="41" height="41">
<path d="M36.0792 0H-4V40.0792H36.0792V0Z" fill="white"/>
</mask>
<g mask="url(#mask0_4154_1614)">
<path d="M21.1922 24.7764C21.5612 24.7683 21.9123 24.6161 22.1704 24.3524C22.4285 24.0886 22.573 23.7343 22.573 23.3652C22.573 22.9962 22.4285 22.6419 22.1704 22.3781C21.9123 22.1143 21.5612 21.9621 21.1922 21.9541C20.9864 21.9543 20.7832 21.9999 20.5971 22.0877L20.1722 21.6622L19.0961 20.5166L18.3105 21.1659L19.4107 22.2661L19.9151 22.7704C19.8149 22.9852 19.7706 23.2218 19.7862 23.4583C19.8018 23.6948 19.8768 23.9235 20.0043 24.1233C20.1318 24.3231 20.3076 24.4875 20.5155 24.6013C20.7233 24.7151 20.9566 24.7746 21.1936 24.7743M21.1936 22.9187C21.2816 22.9187 21.3676 22.9448 21.4408 22.9937C21.514 23.0426 21.571 23.1121 21.6047 23.1935C21.6383 23.2748 21.6471 23.3643 21.6299 23.4506C21.6126 23.5369 21.5702 23.6162 21.5079 23.6784C21.4456 23.7406 21.3663 23.7829 21.28 23.8C21.1936 23.8171 21.1041 23.8082 21.0229 23.7744C20.9416 23.7406 20.8722 23.6835 20.8234 23.6102C20.7745 23.537 20.7486 23.4509 20.7487 23.3629C20.7487 23.3045 20.7602 23.2467 20.7826 23.1927C20.8049 23.1388 20.8377 23.0898 20.879 23.0486C20.9204 23.0073 20.9694 22.9746 21.0234 22.9523C21.0774 22.93 21.1352 22.9186 21.1936 22.9187Z" fill="#6D37FF"/>
<path d="M21.5619 6.21226C21.568 6.16038 21.5712 6.10819 21.5712 6.05595C21.5728 5.72971 21.4617 5.41292 21.2568 5.15908C21.0518 4.90525 20.7656 4.72992 20.4463 4.66271C20.1271 4.59551 19.7944 4.64054 19.5045 4.7902C19.2146 4.93987 18.9853 5.18499 18.8552 5.48418C18.7251 5.78337 18.7022 6.11829 18.7905 6.43237C18.8787 6.74646 19.0727 7.02046 19.3395 7.20811C19.6064 7.39576 19.9299 7.48556 20.2553 7.46233C20.5807 7.43911 20.8882 7.30429 21.1257 7.08064C22.4689 7.80318 23.6419 8.80483 24.5658 10.0183C25.4898 11.2318 26.1434 12.6289 26.4826 14.1159C26.8218 15.6029 26.8388 17.1453 26.5325 18.6394C26.2262 20.1335 25.6037 21.5448 24.7068 22.7783L21.4597 19.5312L20.0061 18.0877L19.8986 18.3362L19.9654 19.405L20.9273 20.3676L24.0982 23.5385C22.3441 25.5539 19.8988 26.8392 17.244 27.1412C14.5893 27.4431 11.9178 26.7398 9.75589 25.1697L12.9135 22.0128L14.5407 20.5566V19.0202L11.8454 21.7156L8.6811 24.8798C8.67496 24.8864 8.66916 24.8933 8.66373 24.9005C8.65762 24.9062 8.65182 24.9122 8.64637 24.9186C8.64198 24.9243 8.63796 24.9303 8.63434 24.9366C8.62391 24.9503 8.61453 24.9649 8.60629 24.98C8.59826 24.9929 8.59112 25.0063 8.58491 25.0201C8.57823 25.0348 8.57222 25.0495 8.56688 25.0648C8.56153 25.0802 8.55752 25.0942 8.55418 25.1096C8.55026 25.1245 8.54736 25.1397 8.5455 25.155C8.5455 25.1704 8.54149 25.1858 8.54082 25.2011C8.54016 25.2165 8.54082 25.2318 8.54082 25.2479C8.54082 25.2639 8.54082 25.2779 8.5455 25.2926C8.54759 25.3084 8.55071 25.324 8.55485 25.3394C8.55886 25.3541 8.56287 25.3681 8.56754 25.3828C8.5728 25.3977 8.57905 25.4122 8.58625 25.4262C8.59293 25.4409 8.59961 25.4543 8.60762 25.4683C8.61564 25.4823 8.62499 25.4944 8.63434 25.5071C8.64384 25.5203 8.6541 25.533 8.66507 25.5451C8.67041 25.5511 8.67442 25.5578 8.67977 25.5632C8.68511 25.5685 8.69379 25.5739 8.70047 25.5799C8.70715 25.5859 8.71183 25.5926 8.71851 25.5979C9.91324 26.561 11.2864 27.2788 12.7591 27.71C14.2319 28.1412 15.7753 28.2775 17.3008 28.1108C18.8264 27.9442 20.304 27.478 21.6489 26.739C22.9939 26 24.1797 25.0027 25.1383 23.8044C25.1456 23.7943 25.1543 23.7857 25.161 23.7756C26.2295 22.4394 26.9909 20.8844 27.3913 19.221C27.7917 17.5576 27.8212 15.8265 27.4777 14.1504C27.1342 12.4744 26.4262 10.8944 25.4039 9.52251C24.3815 8.15065 23.0698 7.02052 21.5619 6.21226ZM20.1591 6.50016C20.0711 6.50016 19.9851 6.47405 19.9119 6.42514C19.8387 6.37622 19.7817 6.3067 19.748 6.22537C19.7144 6.14404 19.7056 6.05456 19.7228 5.96824C19.7401 5.88193 19.7825 5.80266 19.8448 5.74047C19.9071 5.67828 19.9864 5.63596 20.0727 5.61887C20.1591 5.60178 20.2486 5.61068 20.3298 5.64446C20.4111 5.67823 20.4805 5.73536 20.5293 5.80861C20.5782 5.88185 20.6041 5.96793 20.604 6.05595C20.604 6.11434 20.5925 6.17216 20.5701 6.2261C20.5478 6.28003 20.515 6.32903 20.4737 6.37029C20.4323 6.41155 20.3833 6.44425 20.3293 6.46654C20.2753 6.48882 20.2175 6.50025 20.1591 6.50016Z" fill="#6D37FF"/>
<path d="M16.0354 2.40479C8.26275 2.40479 1.94092 8.72795 1.94092 16.4993C1.93818 19.8109 3.10709 23.0166 5.24078 25.5492C5.24679 25.5559 5.2508 25.5632 5.25748 25.5699H5.26082C6.58113 27.1431 8.22992 28.4081 10.0913 29.276C11.9527 30.1439 13.9816 30.5937 16.0354 30.5938C23.8075 30.5938 30.13 24.2707 30.13 16.4993C30.13 8.72795 23.8068 2.40479 16.0354 2.40479ZM16.0354 29.6293C14.1892 29.6296 12.3638 29.2396 10.6789 28.4848C8.99402 27.7301 7.48771 26.6277 6.25879 25.2499L11.1418 20.3669L14.6968 16.8066L13.8384 16.3343L10.6127 19.5326L10.1772 19.9682L5.6389 24.5025C3.86528 22.2118 2.90392 19.3963 2.90616 16.4993C2.90616 9.26033 8.7958 3.37069 16.0354 3.37069C23.2751 3.37069 29.1641 9.25967 29.1641 16.4993C29.1641 23.7389 23.2744 29.6279 16.0354 29.6279" fill="#6D37FF"/>
<path d="M15.3099 9.31581V4.57844C15.3053 4.45338 15.2523 4.33498 15.1622 4.24815C15.0721 4.16131 14.9518 4.11279 14.8266 4.11279C14.7015 4.11279 14.5812 4.16131 14.4911 4.24815C14.4009 4.33498 14.348 4.45338 14.3433 4.57844V4.94317C12.6883 5.18507 11.1046 5.77974 9.69941 6.6869C8.29421 7.59406 7.10031 8.79255 6.19854 10.2012C5.29677 11.6099 4.70818 13.1959 4.47263 14.8518C4.23707 16.5077 4.36004 18.1949 4.83321 19.7992C4.57841 20.0114 4.40649 20.3065 4.34761 20.6328C4.28874 20.9591 4.34668 21.2958 4.51127 21.5836C4.67586 21.8714 4.93657 22.0921 5.24765 22.2069C5.55873 22.3217 5.9003 22.3232 6.2124 22.2112C6.5245 22.0993 6.78719 21.8809 6.95435 21.5946C7.12152 21.3082 7.18249 20.9721 7.12655 20.6453C7.07062 20.3185 6.90136 20.0218 6.64847 19.8074C6.39559 19.5929 6.07525 19.4744 5.74368 19.4725C5.32316 18.0148 5.217 16.4843 5.4322 14.9824C5.6474 13.4805 6.17906 12.0414 6.99201 10.7604C7.80496 9.4793 8.88067 8.38547 10.148 7.55123C11.4153 6.71699 12.8453 6.16136 14.3433 5.9211V10.6578L15.3099 11.3031V9.31581ZM5.73499 20.4405C5.82301 20.4405 5.90905 20.4666 5.98222 20.5155C6.0554 20.5644 6.11242 20.6339 6.14607 20.7152C6.17972 20.7966 6.18849 20.8861 6.17127 20.9724C6.15405 21.0587 6.11162 21.138 6.04933 21.2002C5.98705 21.2623 5.90772 21.3047 5.82137 21.3217C5.73503 21.3388 5.64556 21.3299 5.56428 21.2962C5.483 21.2624 5.41357 21.2053 5.36476 21.132C5.31596 21.0588 5.28998 20.9727 5.29011 20.8847C5.29011 20.8263 5.30163 20.7685 5.32399 20.7145C5.34636 20.6606 5.37914 20.6116 5.42046 20.5703C5.46178 20.5291 5.51082 20.4964 5.5648 20.4741C5.61877 20.4518 5.6766 20.4404 5.73499 20.4405Z" fill="#6D37FF"/>
<path d="M17.7234 9.51999H17.7274V4.57688C17.7274 4.44862 17.6765 4.32561 17.5858 4.23491C17.4951 4.14421 17.3721 4.09326 17.2438 4.09326C17.1155 4.09326 16.9925 4.14421 16.9018 4.23491C16.8111 4.32561 16.7602 4.44862 16.7602 4.57688V8.92548H16.7568V12.2708L17.7234 13.0316V9.51999Z" fill="#6D37FF"/>
<path d="M18.3106 19.6815V19.5753C18.1202 18.7142 16.7462 17.9614 15.4222 17.2373C14.9813 17.3582 14.646 17.5713 14.5685 17.922L14.5425 21.1096C14.6263 21.0257 14.7262 20.9594 14.8361 20.9148C14.946 20.8702 15.0638 20.8481 15.1824 20.8498C15.5972 20.8498 18.3106 20.6494 18.3106 19.6795" fill="#6D37FF"/>
<path d="M17.0394 13.6792H16.8022V13.9337H17.0394V13.6792Z" fill="#6D37FF"/>
<path d="M15.1857 12.377H14.9492V12.6315H15.1857V12.377Z" fill="#6D37FF"/>
<path d="M13.4803 10.4229H13.2432V10.6787H13.4803V10.4229Z" fill="#6D37FF"/>
<path d="M17.5965 16.2842H17.3594V16.54H17.5965V16.2842Z" fill="#6D37FF"/>
<path d="M15.1857 14.3296H14.9492V14.5868H15.1857V14.3296Z" fill="#6D37FF"/>
<path d="M17.5965 13.6792H17.3594V13.9337H17.5965V13.6792Z" fill="#6D37FF"/>
<path d="M13.0369 11.0737H12.7998V11.3296H13.0369V11.0737Z" fill="#6D37FF"/>
<path d="M15.6289 11.7251H15.3931V11.9816H15.6289V11.7251Z" fill="#6D37FF"/>
<path d="M13.2598 13.0259L13.3319 13.1154V13.0259H13.2598Z" fill="#6D37FF"/>
<path d="M16.8924 14.3306H16.6553V14.5877H16.8924V14.3306Z" fill="#6D37FF"/>
<path d="M18.2919 17.2072V19.5752C18.3009 19.6116 18.3067 19.6487 18.3093 19.6861V14.4477C18.3093 14.4477 18.2285 13.5172 17.6567 12.9561C16.9533 12.2627 12.9594 9.91075 12.7089 9.36768C12.6542 9.5562 12.6107 9.7478 12.5786 9.94148V10.1098H12.5539C12.5114 10.4015 12.4937 10.6962 12.5012 10.9909H12.5786V11.4131H12.5332C12.5804 11.8239 12.713 12.2202 12.9227 12.5767V12.3763H12.8485V12.2908H13.0235V12.7136H13.0148C13.0295 12.7343 13.0436 12.7544 13.0603 12.7744C13.1271 12.8592 13.1939 12.9434 13.2607 13.0236V12.9414H13.4343V13.23C13.8677 13.7347 14.3423 14.2026 14.8531 14.6287C14.8517 14.6251 14.8506 14.6213 14.8498 14.6174V14.2947C14.8497 14.2882 14.851 14.2817 14.8537 14.2757C14.8563 14.2697 14.8602 14.2643 14.8652 14.26C14.8697 14.255 14.8753 14.251 14.8815 14.2482C14.8877 14.2455 14.8944 14.244 14.9012 14.244H15.2352C15.2483 14.245 15.2606 14.2507 15.2699 14.26C15.2792 14.2693 15.2849 14.2816 15.286 14.2947V14.6181C15.2857 14.6245 15.2842 14.6309 15.2814 14.6367C15.2787 14.6426 15.2748 14.6478 15.27 14.6521C15.2655 14.6568 15.2601 14.6605 15.2541 14.6631C15.2481 14.6656 15.2417 14.6669 15.2352 14.6668H14.9012C15.0856 14.8184 15.1972 14.8999 15.1972 14.8999L13.2052 13.6882C13.2052 13.6882 12.8779 13.4838 12.8712 13.3014C12.8712 13.3014 12.2854 15.2947 13.8425 16.3328C14.2934 16.6327 14.8445 16.934 15.4069 17.2379C16.5178 16.934 18.2959 17.2058 18.2959 17.2058M14.4096 11.6402H14.5853V12.063H14.4851V11.7237H14.4096V11.6402ZM14.115 10.9895H14.2894V11.4117H14.1892V11.0724H14.115V10.9895ZM13.7015 10.3396H13.8739V10.7624H13.775V10.4204H13.7015V10.3396ZM13.5526 11.725V11.6415H13.7269V12.0643H13.628V11.725H13.5526ZM13.1418 10.389C13.1423 10.3756 13.148 10.3629 13.1578 10.3536C13.1625 10.3488 13.1681 10.345 13.1743 10.3423C13.1805 10.3397 13.1871 10.3383 13.1939 10.3383H13.5278C13.5414 10.3386 13.5543 10.3441 13.5639 10.3536C13.5686 10.3582 13.5723 10.3637 13.5746 10.3698C13.5769 10.3759 13.5778 10.3825 13.5773 10.389V10.7117C13.5777 10.7179 13.5767 10.7241 13.5744 10.7299C13.572 10.7356 13.5685 10.7408 13.5639 10.7451C13.5543 10.7548 13.5415 10.7605 13.5278 10.7611H13.1939C13.1807 10.7604 13.1683 10.755 13.1587 10.746C13.1492 10.7369 13.1432 10.7247 13.1418 10.7117V10.389ZM13.258 11.0724V10.9895H13.4343V11.4117H13.3348V11.0724H13.258ZM13.1244 11.0056C13.1334 11.0149 13.1384 11.0274 13.1384 11.0403V11.363C13.1386 11.3693 13.1374 11.3756 13.135 11.3815C13.1326 11.3873 13.129 11.3926 13.1244 11.397C13.1196 11.402 13.1139 11.4059 13.1076 11.4085C13.1013 11.4112 13.0945 11.4125 13.0876 11.4124H12.7537C12.7469 11.4128 12.7401 11.4117 12.7338 11.409C12.7275 11.4063 12.722 11.4022 12.7176 11.397C12.7129 11.3927 12.7092 11.3874 12.7067 11.3815C12.7041 11.3757 12.7028 11.3693 12.7029 11.363V11.0403C12.7031 11.0273 12.7084 11.0148 12.7176 11.0056C12.7222 11.0006 12.7277 10.9966 12.734 10.994C12.7402 10.9913 12.7469 10.9901 12.7537 10.9902H13.0876C13.1014 10.9907 13.1144 10.9961 13.1244 11.0056ZM13.0255 10.7618H12.9247V10.4204H12.8505V10.3376H13.0255V10.7618ZM12.6995 9.68898H12.8726V10.1098H12.7737V9.77181H12.6995V9.68898ZM12.5526 10.4238V10.3409H12.7256V10.7638H12.6261V10.4204L12.5526 10.4238ZM12.8726 12.0657H12.7737V11.7263H12.6995V11.6428H12.8726V12.0657ZM13.0449 12.0657C13.0384 12.0658 13.0319 12.0646 13.0258 12.0622C13.0197 12.0598 13.0142 12.0562 13.0095 12.0516C13.0004 12.0416 12.9954 12.0285 12.9955 12.0149V11.6896C12.9954 11.683 12.9966 11.6765 12.999 11.6704C13.0015 11.6643 13.0051 11.6587 13.0097 11.654C13.0143 11.6493 13.0197 11.6455 13.0258 11.6429C13.0318 11.6403 13.0383 11.6389 13.0449 11.6388H13.3789C13.3926 11.6391 13.4058 11.6446 13.4156 11.6542C13.4203 11.6588 13.4239 11.6644 13.4263 11.6704C13.4287 11.6765 13.4299 11.6831 13.4297 11.6896V12.0109C13.43 12.0245 13.425 12.0377 13.4156 12.0476C13.4056 12.0569 13.3925 12.0619 13.3789 12.0617L13.0449 12.0657ZM13.1932 12.7176C13.1797 12.7173 13.1668 12.7118 13.1571 12.7023C13.1473 12.6925 13.1416 12.6794 13.1411 12.6655V12.3449C13.1416 12.3314 13.1473 12.3187 13.1571 12.3095C13.1617 12.3046 13.1674 12.3008 13.1736 12.2983C13.1798 12.2957 13.1865 12.2945 13.1932 12.2948H13.5272C13.5339 12.2947 13.5405 12.2959 13.5467 12.2984C13.5529 12.301 13.5585 12.3047 13.5633 12.3095C13.568 12.314 13.5716 12.3196 13.5739 12.3257C13.5762 12.3318 13.5772 12.3384 13.5766 12.3449V12.6655C13.5772 12.6723 13.5763 12.679 13.574 12.6854C13.5717 12.6917 13.568 12.6975 13.5633 12.7023C13.5535 12.7116 13.5407 12.717 13.5272 12.7176H13.1932ZM13.9881 13.3188C13.9878 13.3318 13.9831 13.3443 13.9747 13.3542C13.9647 13.3635 13.9516 13.3687 13.938 13.3689H13.604C13.5904 13.3687 13.5773 13.3635 13.5673 13.3542C13.5584 13.3445 13.5534 13.3319 13.5532 13.3188V12.9955C13.5534 12.9819 13.5586 12.9688 13.5679 12.9588C13.5778 12.9493 13.591 12.944 13.6047 12.9441H13.9387C13.9524 12.944 13.9655 12.9493 13.9754 12.9588C13.9835 12.9686 13.9882 12.9808 13.9888 12.9935L13.9881 13.3188ZM14.284 13.3689H14.1838V13.0256H14.1097V12.9421H14.284V13.3689ZM14.284 12.0156C14.2841 12.0225 14.2828 12.0294 14.28 12.0357C14.2772 12.042 14.2731 12.0477 14.268 12.0523C14.2634 12.057 14.2578 12.0606 14.2517 12.063C14.2457 12.0655 14.2391 12.0666 14.2326 12.0663H13.8986C13.8919 12.0665 13.8852 12.0653 13.879 12.0628C13.8728 12.0604 13.8672 12.0566 13.8625 12.0519C13.8578 12.0471 13.8541 12.0414 13.8517 12.0352C13.8493 12.0289 13.8482 12.0223 13.8485 12.0156V11.6896C13.8484 11.683 13.8497 11.6765 13.8522 11.6704C13.8547 11.6643 13.8585 11.6588 13.8632 11.6542C13.8727 11.6448 13.8853 11.6394 13.8986 11.6388H14.2326C14.2392 11.6388 14.2458 11.6402 14.2519 11.6428C14.258 11.6455 14.2635 11.6493 14.268 11.6542C14.2731 11.6585 14.2772 11.664 14.28 11.6701C14.2827 11.6762 14.2841 11.6829 14.284 11.6896V12.0156ZM14.5799 14.0195H14.4797V13.6815H14.4042V13.598H14.5799V14.0195ZM14.7269 12.719H14.6267V12.3796H14.5532V12.2908H14.7269V12.719ZM14.8411 11.3663C14.8416 11.3727 14.8406 11.3792 14.838 11.3852C14.8355 11.3911 14.8315 11.3963 14.8264 11.4004C14.822 11.4055 14.8164 11.4096 14.8102 11.4123C14.8039 11.4149 14.7971 11.4161 14.7903 11.4157H14.4564C14.4496 11.4161 14.4428 11.4149 14.4365 11.4123C14.4303 11.4096 14.4247 11.4055 14.4203 11.4004C14.4154 11.3961 14.4115 11.3908 14.4087 11.385C14.406 11.3791 14.4045 11.3728 14.4042 11.3663V11.0437C14.4051 11.0305 14.4108 11.0181 14.4203 11.0089C14.4249 11.004 14.4305 11.0001 14.4367 10.9975C14.4429 10.9948 14.4496 10.9935 14.4564 10.9936H14.7903C14.7971 10.9935 14.8038 10.9948 14.81 10.9975C14.8162 11.0001 14.8218 11.004 14.8264 11.0089C14.8313 11.0132 14.8352 11.0186 14.8377 11.0246C14.8403 11.0306 14.8414 11.0371 14.8411 11.0437V11.3663ZM17.1123 14.9841V14.8959H17.2853V15.3181H17.1884V14.9788L17.1123 14.9841ZM17.0889 14.0195H16.7549C16.742 14.0198 16.7295 14.015 16.7202 14.0062C16.7154 14.0015 16.7117 13.9959 16.7093 13.9896C16.7069 13.9834 16.7058 13.9768 16.7061 13.9701V13.6488C16.7056 13.6422 16.7066 13.6356 16.709 13.6295C16.7114 13.6233 16.7152 13.6178 16.7202 13.6134C16.7245 13.6085 16.7298 13.6046 16.7358 13.6019C16.7418 13.5993 16.7483 13.5979 16.7549 13.598H17.0889C17.1022 13.5984 17.1149 13.6039 17.1243 13.6134C17.1285 13.6182 17.1318 13.6238 17.1338 13.6299C17.1359 13.636 17.1367 13.6424 17.1363 13.6488V13.9701C17.1367 13.9832 17.1325 13.996 17.1243 14.0062C17.1144 14.0146 17.1019 14.0194 17.0889 14.0195ZM17.2599 15.6307V15.5472H17.4349V15.9687H17.3347V15.6307H17.2599ZM17.6948 16.5706C17.6952 16.577 17.6943 16.5834 17.692 16.5894C17.6897 16.5955 17.6861 16.6009 17.6814 16.6053C17.6768 16.6103 17.6712 16.6142 17.665 16.6169C17.6588 16.6195 17.6521 16.6208 17.6453 16.6207H17.3113C17.2981 16.6201 17.2856 16.6146 17.2761 16.6054C17.2666 16.5962 17.2609 16.5838 17.2599 16.5706V16.2479C17.2607 16.2348 17.2665 16.2224 17.276 16.2132C17.2855 16.2041 17.2981 16.1988 17.3113 16.1985H17.6453C17.652 16.1984 17.6587 16.1996 17.6649 16.2022C17.6711 16.2047 17.6767 16.2084 17.6814 16.2132C17.6859 16.2177 17.6895 16.2232 17.6918 16.2291C17.6941 16.2351 17.6951 16.2415 17.6948 16.2479V16.5706ZM17.992 16.6207H17.8931V16.282H17.8183V16.1985H17.992V16.6207ZM17.7034 14.244H17.8778V14.6668H17.7762V14.3275H17.7014L17.7034 14.244ZM17.7034 14.8966H17.8778V15.3188H17.7762V14.9794H17.7014L17.7034 14.8966ZM17.2599 12.9421H17.4349V13.3649H17.3347V13.0256H17.2599V12.9421ZM17.2599 13.6441C17.2597 13.6374 17.261 13.6307 17.2638 13.6246C17.2666 13.6184 17.2707 13.613 17.2759 13.6087C17.2804 13.6038 17.2858 13.5998 17.2919 13.5972C17.2981 13.5945 17.3047 13.5932 17.3113 13.5934H17.6453C17.6521 13.5932 17.6588 13.5945 17.665 13.5971C17.6712 13.5998 17.6768 13.6037 17.6814 13.6087C17.6862 13.6132 17.69 13.6187 17.6923 13.6248C17.6946 13.631 17.6954 13.6376 17.6948 13.6441V13.9654C17.6952 13.972 17.6943 13.9787 17.692 13.9849C17.6896 13.9911 17.686 13.9968 17.6814 14.0015C17.6715 14.0105 17.6586 14.0152 17.6453 14.0149H17.3113C17.3047 14.015 17.2981 14.0139 17.2919 14.0115C17.2857 14.0091 17.2801 14.0055 17.2753 14.0009C17.2705 13.9963 17.2667 13.9908 17.264 13.9847C17.2614 13.9786 17.26 13.9721 17.2599 13.9654V13.6441ZM16.9653 12.9421H17.1377V13.3649H17.0415V13.0256H16.9673L16.9653 12.9421ZM16.6694 12.9421H16.8444V13.3649H16.7435V13.0256H16.6694V12.9421ZM15.7055 12.377V12.2908H15.8792V12.7136H15.779V12.3743L15.7055 12.377ZM15.2927 11.6896C15.2924 11.6829 15.2937 11.6763 15.2963 11.6702C15.299 11.664 15.303 11.6586 15.308 11.6542C15.3174 11.6446 15.3301 11.6391 15.3434 11.6388H15.6774C15.6839 11.639 15.6902 11.6404 15.696 11.643C15.7019 11.6457 15.7072 11.6495 15.7115 11.6542C15.7167 11.6584 15.7209 11.6639 15.7237 11.67C15.7265 11.6761 15.7278 11.6829 15.7275 11.6896V12.0109C15.7274 12.0242 15.7221 12.0369 15.7127 12.0464C15.7034 12.0558 15.6907 12.0613 15.6774 12.0617H15.3434C15.3369 12.0618 15.3304 12.0606 15.3243 12.0582C15.3183 12.0558 15.3127 12.0522 15.308 12.0476C15.303 12.043 15.299 12.0373 15.2963 12.031C15.2937 12.0246 15.2924 12.0178 15.2927 12.0109V11.6896ZM15.4076 12.3743V12.2908H15.5806V12.7136H15.4817V12.3743H15.4076ZM14.9981 11.6395H15.1711V12.0623H15.0722V11.723H14.9988L14.9981 11.6395ZM15.1711 14.0169H15.0722V13.6789H14.9988V13.5954H15.1711V14.0169ZM15.2867 12.6642C15.2866 12.6711 15.2851 12.6779 15.2824 12.6842C15.2796 12.6905 15.2756 12.6962 15.2706 12.7009C15.2662 12.7057 15.2608 12.7095 15.2548 12.7122C15.2489 12.7148 15.2424 12.7162 15.2359 12.7163H14.9019C14.8883 12.7159 14.8753 12.7103 14.8657 12.7006C14.8561 12.6909 14.8506 12.6778 14.8505 12.6642V12.3436C14.8503 12.3369 14.8515 12.3303 14.8542 12.3241C14.8569 12.318 14.8608 12.3126 14.8658 12.3082C14.8702 12.3023 14.876 12.2977 14.8827 12.2947C14.8893 12.2916 14.8966 12.2903 14.9039 12.2908H15.2379C15.2444 12.2904 15.251 12.2915 15.257 12.2941C15.263 12.2966 15.2684 12.3005 15.2726 12.3055C15.2776 12.31 15.2816 12.3154 15.2843 12.3215C15.2871 12.3276 15.2886 12.3342 15.2887 12.3409L15.2867 12.6642ZM15.3441 14.0169C15.331 14.017 15.3184 14.0122 15.3087 14.0035C15.3038 13.9989 15.2999 13.9933 15.2972 13.9871C15.2946 13.9809 15.2933 13.9742 15.2933 13.9674V13.6461C15.293 13.6395 15.2943 13.6328 15.2969 13.6267C15.2996 13.6205 15.3036 13.6151 15.3087 13.6107C15.3132 13.6059 15.3187 13.602 15.3248 13.5993C15.3309 13.5967 15.3375 13.5953 15.3441 13.5954H15.6781C15.6845 13.5954 15.6909 13.5967 15.6968 13.5994C15.7027 13.602 15.7079 13.6059 15.7122 13.6107C15.7174 13.6149 15.7217 13.6203 15.7244 13.6265C15.7272 13.6327 15.7285 13.6394 15.7282 13.6461V13.9674C15.7283 13.9742 15.7269 13.981 15.7241 13.9872C15.7213 13.9934 15.7173 13.999 15.7122 14.0035C15.703 14.0122 15.6908 14.017 15.6781 14.0169H15.3441ZM15.8785 14.6688H15.7783V14.3295H15.7055V14.246H15.8792L15.8785 14.6688ZM15.9927 13.3669H15.8925V13.0256H15.8197V12.9421H15.9927V13.3669ZM16.0148 12.6989C16.0058 12.6888 16.0008 12.6757 16.0007 12.6622V12.3416C16.0008 12.3284 16.0058 12.3158 16.0148 12.3061C16.019 12.3014 16.0243 12.2976 16.0302 12.295C16.0361 12.2925 16.0424 12.2913 16.0488 12.2915H16.3828C16.3897 12.2912 16.3966 12.2924 16.4031 12.2949C16.4095 12.2974 16.4154 12.3012 16.4202 12.3061C16.4251 12.3107 16.429 12.3161 16.4316 12.3222C16.4343 12.3283 16.4356 12.3349 16.4356 12.3416V12.6622C16.4356 12.669 16.4343 12.6758 16.4317 12.6821C16.429 12.6884 16.4251 12.6942 16.4202 12.6989C16.4101 12.7085 16.3968 12.7139 16.3828 12.7143H16.0488C16.0359 12.7138 16.0237 12.7082 16.0148 12.6989ZM16.5492 13.3148C16.5491 13.3215 16.5477 13.3281 16.5449 13.3342C16.5422 13.3403 16.5381 13.3458 16.5331 13.3502C16.5284 13.355 16.5228 13.3587 16.5166 13.3613C16.5104 13.3638 16.5037 13.365 16.4971 13.3649H16.1631C16.1567 13.3649 16.1504 13.3636 16.1445 13.3611C16.1386 13.3586 16.1334 13.3549 16.129 13.3502C16.1241 13.3457 16.1203 13.3402 16.1178 13.3341C16.1153 13.328 16.1141 13.3214 16.1143 13.3148V12.9915C16.1142 12.985 16.1155 12.9786 16.118 12.9726C16.1205 12.9666 16.1243 12.9612 16.129 12.9568C16.1333 12.952 16.1386 12.9483 16.1444 12.9457C16.1503 12.9432 16.1567 12.9419 16.1631 12.9421H16.4971C16.5038 12.9418 16.5105 12.943 16.5167 12.9455C16.5229 12.948 16.5285 12.9519 16.5331 12.9568C16.538 12.9612 16.542 12.9665 16.5447 12.9725C16.5475 12.9784 16.549 12.9849 16.5492 12.9915V13.3148ZM16.5699 14.6508C16.5611 14.6415 16.5561 14.6294 16.5558 14.6167V14.2947C16.556 14.2818 16.561 14.2694 16.5699 14.26C16.5795 14.2504 16.5924 14.2447 16.6059 14.244H16.9399C16.9533 14.2442 16.9661 14.2496 16.9756 14.259C16.9851 14.2685 16.9905 14.2813 16.9907 14.2947V14.6181C16.99 14.6307 16.9851 14.6427 16.9767 14.6521C16.9667 14.6614 16.9536 14.6667 16.9399 14.6668H16.6059C16.5925 14.6666 16.5796 14.6613 16.5699 14.6521" fill="#6D37FF"/>
<path d="M14.1859 11.7251H13.9487V11.9816H14.1859V11.7251Z" fill="#6D37FF"/>
<path d="M13.8897 13.0278H13.6519V13.2837H13.8897V13.0278Z" fill="#6D37FF"/>
<path d="M13.4803 12.377H13.2432V12.6315H13.4803V12.377Z" fill="#6D37FF"/>
<path d="M15.6289 13.6792H15.3931V13.9337H15.6289V13.6792Z" fill="#6D37FF"/>
<path d="M13.3322 11.7251H13.0957V11.9816H13.3322V11.7251Z" fill="#6D37FF"/>
<path d="M14.7435 11.0747H14.5063V11.3305H14.7435V11.0747Z" fill="#6D37FF"/>
<path d="M16.4494 13.0278H16.2109V13.2837H16.4494V13.0278Z" fill="#6D37FF"/>
<path d="M16.3348 12.377H16.0977V12.6315H16.3348V12.377Z" fill="#6D37FF"/>
<path d="M18.2919 19.5756V17.2076C18.2919 17.2076 16.5137 16.9357 15.4028 17.2396C16.7274 17.9611 18.1008 18.7145 18.2919 19.5776" fill="#6D37FF"/>
<path d="M18.448 19.779C18.448 20.7515 15.7166 20.9439 15.3011 20.9439C15.0637 20.9417 14.835 21.0332 14.6646 21.1984C14.6644 21.2124 14.6669 21.2262 14.6719 21.2392C14.6719 21.2392 14.7294 21.471 15.3993 21.471H17.442C17.442 21.471 18.6665 21.4189 19.2536 20.8424C19.8408 20.2659 19.9183 19.9994 19.955 19.6587C19.9918 19.318 19.9316 18.64 19.9884 18.3087C20.0452 17.9774 20.2556 17.5506 21.0759 17.5506C21.0759 17.5506 20.1287 16.8425 19.6584 16.7597C19.2576 16.6889 18.6217 16.8732 18.4487 17.2072V19.779H18.448ZM19.9497 17.6414C19.9148 17.6407 19.8809 17.6298 19.8522 17.61C19.8236 17.5901 19.8014 17.5622 19.7885 17.5298C19.7756 17.4974 19.7726 17.462 19.7798 17.4279C19.787 17.3937 19.8041 17.3625 19.829 17.3381C19.8539 17.3137 19.8854 17.2971 19.9197 17.2906C19.9539 17.284 19.9893 17.2877 20.0215 17.3012C20.0536 17.3147 20.0811 17.3374 20.1004 17.3664C20.1197 17.3954 20.13 17.4295 20.13 17.4644C20.1295 17.5118 20.1102 17.557 20.0764 17.5902C20.0426 17.6233 19.997 17.6418 19.9497 17.6414Z" fill="#6D37FF"/>
<path d="M11.381 9.03783H11.047C11.0329 9.03771 11.0193 9.04296 11.009 9.05252C11.0009 9.06235 10.9962 9.07454 10.9956 9.08726V9.40923C10.9958 9.42222 11.0005 9.43473 11.009 9.44463C11.0196 9.45373 11.0331 9.45871 11.047 9.45866H11.381C11.394 9.45865 11.4064 9.45362 11.4158 9.44463C11.4207 9.44016 11.4245 9.43467 11.427 9.42856C11.4296 9.42244 11.4307 9.41584 11.4305 9.40923V9.08459C11.4306 9.07809 11.4293 9.07165 11.4268 9.06567C11.4242 9.05969 11.4205 9.0543 11.4158 9.04985C11.4113 9.04519 11.4059 9.04148 11.3999 9.03896C11.3939 9.03643 11.3875 9.03514 11.381 9.03516M11.3323 9.37316H11.0965V9.11799H11.3336L11.3323 9.37316Z" fill="#6D37FF"/>
<path d="M11.6266 9.45892H11.7268V9.03809H11.5518V9.12092H11.6266V9.45892Z" fill="#6D37FF"/>
<path d="M11.381 9.68902H11.047C11.0401 9.6887 11.0331 9.68977 11.0266 9.69218C11.02 9.69459 11.0141 9.69828 11.009 9.70305C11.001 9.7132 10.9963 9.72556 10.9956 9.73845V10.0611C10.9962 10.0738 11.0009 10.086 11.009 10.0958C11.0141 10.1006 11.02 10.1043 11.0266 10.1067C11.0331 10.1091 11.0401 10.1102 11.047 10.1099H11.381C11.3875 10.1102 11.3939 10.1091 11.3999 10.1066C11.4059 10.1042 11.4113 10.1005 11.4158 10.0958C11.4205 10.0914 11.4242 10.086 11.4268 10.08C11.4293 10.074 11.4306 10.0676 11.4305 10.0611V9.73845C11.4305 9.73187 11.4292 9.72535 11.4267 9.71927C11.4242 9.71319 11.4205 9.70767 11.4158 9.70305C11.4113 9.69834 11.4059 9.69465 11.3999 9.69223C11.3939 9.68981 11.3875 9.68871 11.381 9.68902ZM11.3323 10.0277H11.0965V9.77185H11.3336L11.3323 10.0277Z" fill="#6D37FF"/>
<path d="M11.6025 10.1099H11.9365C11.943 10.1104 11.9495 10.1094 11.9555 10.107C11.9616 10.1046 11.9669 10.1008 11.9713 10.0959C11.9763 10.0916 11.9805 10.0862 11.9834 10.0803C11.9864 10.0743 11.9882 10.0678 11.9886 10.0612V9.73852C11.9876 9.72492 11.9814 9.71223 11.9713 9.70312C11.9669 9.69826 11.9616 9.69446 11.9555 9.69203C11.9495 9.68959 11.943 9.68859 11.9365 9.68909H11.6025C11.5959 9.68876 11.5892 9.68984 11.583 9.69226C11.5768 9.69468 11.5711 9.69838 11.5665 9.70312C11.5573 9.71266 11.552 9.7253 11.5518 9.73852V10.0612C11.5519 10.0742 11.5572 10.0867 11.5665 10.0959C11.5711 10.1006 11.5768 10.1043 11.583 10.1068C11.5892 10.1092 11.5959 10.1103 11.6025 10.1099ZM11.6513 9.77192H11.8891V10.0278H11.6513V9.77192Z" fill="#6D37FF"/>
<path d="M12.1845 10.1098H12.2847V9.68896H12.1104V9.77179H12.1845V10.1098Z" fill="#6D37FF"/>
<path d="M12.5788 9.68896H12.4058V9.77179H12.4799V10.1098H12.5541C12.5627 10.0517 12.5688 9.99557 12.5788 9.94146V9.68896Z" fill="#6D37FF"/>
<path d="M11.1426 10.4227H11.2167V10.7627H11.3169V10.3398H11.1426V10.4227Z" fill="#6D37FF"/>
<path d="M11.8735 10.7133V10.3906C11.8737 10.384 11.8727 10.3774 11.8703 10.3712C11.8679 10.365 11.8643 10.3593 11.8597 10.3546C11.8551 10.3498 11.8495 10.3461 11.8434 10.3435C11.8372 10.341 11.8307 10.3398 11.824 10.3398H11.49C11.4765 10.3401 11.4635 10.3456 11.454 10.3552C11.445 10.3648 11.44 10.3775 11.4399 10.3906V10.7133C11.4404 10.7257 11.4454 10.7376 11.454 10.7467C11.4635 10.7565 11.4764 10.7622 11.49 10.7627H11.824C11.8377 10.7622 11.8506 10.7565 11.8601 10.7467C11.8685 10.7375 11.8732 10.7256 11.8735 10.7133ZM11.7746 10.6785H11.5375V10.4207H11.7746V10.6785Z" fill="#6D37FF"/>
<path d="M12.4324 10.7133V10.3906C12.4326 10.384 12.4313 10.3775 12.4288 10.3714C12.4263 10.3653 12.4225 10.3598 12.4177 10.3552C12.4131 10.3504 12.4077 10.3466 12.4016 10.3439C12.3955 10.3413 12.3889 10.3399 12.3823 10.3398H12.0483C12.0418 10.3398 12.0353 10.3411 12.0293 10.3437C12.0233 10.3464 12.0179 10.3503 12.0136 10.3552C12.0089 10.3598 12.0052 10.3653 12.0028 10.3714C12.0004 10.3775 11.9993 10.3841 11.9996 10.3906V10.7133C11.9995 10.7195 12.0007 10.7257 12.0031 10.7314C12.0055 10.7372 12.0091 10.7423 12.0136 10.7467C12.0179 10.7517 12.0232 10.7557 12.0292 10.7584C12.0352 10.7612 12.0417 10.7627 12.0483 10.7627H12.3823C12.389 10.7625 12.3955 10.761 12.4016 10.7582C12.4077 10.7555 12.4132 10.7515 12.4177 10.7467C12.4223 10.7424 12.426 10.7372 12.4285 10.7315C12.431 10.7257 12.4324 10.7195 12.4324 10.7133ZM12.3329 10.6785H12.0957V10.4207H12.3329V10.6785Z" fill="#6D37FF"/>
<path d="M12.2317 10.9912H11.8978C11.8911 10.9911 11.8845 10.9924 11.8784 10.9951C11.8723 10.9977 11.8668 11.0016 11.8624 11.0066C11.8532 11.0158 11.8479 11.0283 11.8477 11.0413V11.364C11.8476 11.3703 11.8489 11.3767 11.8514 11.3825C11.854 11.3884 11.8577 11.3937 11.8624 11.398C11.8666 11.4032 11.8721 11.4073 11.8782 11.4099C11.8844 11.4126 11.8911 11.4138 11.8978 11.4134H12.2317C12.2384 11.4137 12.2451 11.4125 12.2513 11.4099C12.2574 11.4072 12.2628 11.4031 12.2672 11.398C12.2721 11.3938 12.2762 11.3886 12.2789 11.3828C12.2817 11.3769 12.2831 11.3705 12.2832 11.364V11.0413C12.283 11.0348 12.2814 11.0283 12.2787 11.0223C12.2759 11.0164 12.272 11.011 12.2672 11.0066C12.2626 11.0017 12.2572 10.9978 12.2511 10.9952C12.245 10.9925 12.2384 10.9912 12.2317 10.9912ZM12.183 11.3299H11.9459V11.0747H12.183V11.3299Z" fill="#6D37FF"/>
<path d="M12.4058 10.9912V11.074H12.4799V11.4134H12.5333C12.5166 11.2711 12.5053 11.1295 12.5013 10.9912H12.4058Z" fill="#6D37FF"/>
<path d="M12.9229 12.7163H13.015C12.9823 12.6702 12.9516 12.6234 12.9229 12.5767V12.7163Z" fill="#6D37FF"/>
<path d="M13.332 13.3673H13.4342V13.2337C13.4015 13.197 13.3674 13.1576 13.3354 13.1182L13.332 13.3673Z" fill="#6D37FF"/>
<path d="M14.8651 14.6545C14.8693 14.6591 14.8745 14.6627 14.8802 14.6652C14.886 14.6676 14.8922 14.6687 14.8985 14.6686C14.8826 14.6572 14.8674 14.645 14.853 14.6318C14.8546 14.6405 14.8588 14.6484 14.8651 14.6545Z" fill="#6D37FF"/>
</g>
</g>
</g>
<defs>
<clipPath id="clip0_4154_1614">
<rect width="32" height="32" fill="white"/>
</clipPath>
<clipPath id="clip1_4154_1614">
<rect width="40.0792" height="32" fill="white" transform="translate(-4)"/>
</clipPath>
</defs>
</svg>
